<svg xmlns:xlink="http://www.w3.org/1999/xlink" xmlns="http://www.w3.org/2000/svg" viewBox="0 0 148 148" width="148"  height="148" >
  <g id="a">
    <circle cx="73.55" cy="69.85" r="60" style="fill:#fff;"/>
  </g>
  <g id="b">
    <path d="M60.55,78.85h-6c-3.18,0-6.23-1.26-8.49-3.51-2.25-2.25-3.51-5.3-3.51-8.49s1.26-6.23,3.51-8.49c2.25-2.25,5.3-3.51,8.49-3.51h6v24Zm34.87-38.95c-.32-.08-.66-.06-.97,.07-.31,.13-.56,.36-.72,.65-4.73,8.49-18.82,14.2-29.01,14.2v.03h-1.18v39.85c.12,1.47,.82,2.84,1.94,3.8,1.12,.96,2.58,1.45,4.06,1.34,1.48,.1,2.93-.38,4.06-1.34,1.12-.96,1.82-2.33,1.94-3.8v-14.1c7.6,2.31,15,6.75,18.19,12.47,.13,.24,.32,.43,.55,.57,.23,.14,.49,.21,.76,.21,.13,0,.25-.02,.38-.05,.32-.08,.61-.27,.81-.53,.2-.26,.31-.58,.31-.92V41.35c0-.33-.11-.66-.31-.92-.2-.26-.49-.45-.81-.53Z" style="fill:#026597;"/>
  </g>
</svg>