<svg xmlns:xlink="http://www.w3.org/1999/xlink" xmlns="http://www.w3.org/2000/svg" data-name="Layer 2 copy 2" id="Layer_2_copy_2" viewBox="0 0 136 136" width="136"  height="136" >
  <defs>
    <style>
      .cls-1 {
        fill: none;
        stroke: #f8c611;
        stroke-linecap: round;
        stroke-miterlimit: 10;
        stroke-width: 1.07px;
      }

      .cls-2 {
        opacity: .3;
      }

      .cls-2, .cls-3, .cls-4, .cls-5, .cls-6, .cls-7, .cls-8, .cls-9 {
        stroke-width: 0px;
      }

      .cls-2, .cls-6, .cls-9 {
        fill: #bbbec6;
      }

      .cls-2, .cls-9 {
        isolation: isolate;
      }

      .cls-3 {
        fill: #275f81;
      }

      .cls-4 {
        fill: #5989a9;
      }

      .cls-5 {
        fill: #d9d9d7;
      }

      .cls-7 {
        fill: #fff;
      }

      .cls-8 {
        fill: #023d5b;
      }

      .cls-9 {
        opacity: .5;
      }
    </style>
  </defs>
  <g data-name="Layer 1-2" id="Layer_1-2">
    <g>
      <g>
        <line class="cls-1" x1="68" x2="68" y1="41.43" y2="28.52"/>
        <line class="cls-1" x1="74.89" x2="79.84" y1="42.59" y2="30.65"/>
        <line class="cls-1" x1="82.16" x2="91.3" y1="44.55" y2="35.42"/>
        <line class="cls-1" x1="61.11" x2="56.16" y1="42.59" y2="30.65"/>
        <line class="cls-1" x1="53.84" x2="44.7" y1="44.55" y2="35.42"/>
      </g>
      <g>
        <g>
          <g>
            <g>
              <rect class="cls-6" height="16.41" rx=".63" ry=".63" width="6.44" x="81.38" y="88.58"/>
              <rect class="cls-6" height="16.41" rx=".63" ry=".63" width="6.44" x="120.57" y="88.58"/>
            </g>
            <g>
              <path class="cls-6" d="M86.49,82.92c-1.63.17-3.27.17-4.92,0-.37-.04-.76-.37-.76-.67.02-.84.33-1.73.76-2.64.11-.24.41-.43.67-.46,1.41-.11,2.82-.09,4.23.06.32.04.67.3.74.58.22.85.22,1.71,0,2.58-.07.28-.43.54-.74.58l.02-.02Z"/>
              <path class="cls-6" d="M122.39,82.92c1.63.17,3.27.17,4.92,0,.37-.04.76-.37.76-.67-.02-.84-.33-1.73-.76-2.64-.11-.24-.41-.43-.67-.46-1.41-.11-2.82-.09-4.23.06-.32.04-.67.3-.74.58-.22.85-.22,1.71,0,2.58.07.28.43.54.74.58l-.02-.02Z"/>
            </g>
            <path class="cls-6" d="M127.66,88.1c-.11-.87-.72-.63-.72-1.58s-4.2-5.22-4.36-5.81c-.17-.58-2.39-6.57-3.06-7.42-.22-.3-.59-.45-.84-.65-.45-.35-.97-.56-1.52-.61-6.5-.61-12.7-.65-12.7-.65,0,0-6.29.04-12.86.65-.48.04-.95.22-1.34.52-.24.19-.58.37-.87.71-.67.74-2.9,6.85-3.06,7.42s-4.36,4.84-4.36,5.81-.61.71-.72,1.58c-.09.67-.95,9.6,1.15,11.75h5.12s-.02-.04.56-.09c.19.43.63,1.37,1.13,1.37h30.52c.5,0,.93-.95,1.13-1.37.58.06.56.09.56.09h5.12c2.1-2.17,1.24-11.08,1.15-11.75l-.02.04Z"/>
            <path class="cls-2" d="M104.44,80.94c2.77.19,14.52-.35,15.44-.59.95-.07,1.26-.5,1.04-1.21-.3-.91-1.86-4.81-2.67-5.59-.74-.63-10.27-1.15-13.79-1.17-3.53,0-13.07.54-13.79,1.17-.82.76-2.38,4.68-2.67,5.59-.22.71.09,1.13,1.04,1.21.93.24,12.66.76,15.44.59h-.04Z"/>
            <g>
              <g>
                <path class="cls-6" d="M83.95,93.65c.13.33,6.13.33,7.98.15.56-.06-.78-3.08-1.04-3.29-.69-.54-2.23-1.08-3.55-1.48-1.06-.32-2.06-.22-2.41-.17s-1.37,1.63-1.47,1.95.33,2.36.48,2.82v.02Z"/>
                <path class="cls-6" d="M85.65,89.53c-.3-.11-.54-.2-.67-.2h0c-.06.02-.28.2-.67.78-.28.41-.48.76-.56.89,0,.35.26,1.74.43,2.32.17.04.54.09,1.11.11,0,0,.35-3.9.35-3.9Z"/>
              </g>
              <ellipse class="cls-6" cx="87.6" cy="91.63" rx="1.71" ry="1.69"/>
            </g>
            <g>
              <path class="cls-6" d="M124.73,93.65c-.13.33-6.13.33-7.98.15-.56-.06.78-3.08,1.04-3.29.69-.54,2.23-1.08,3.55-1.48,1.06-.32,2.06-.22,2.41-.17s1.37,1.63,1.47,1.95-.33,2.36-.48,2.82v.02Z"/>
              <ellipse class="cls-6" cx="121.09" cy="91.63" rx="1.71" ry="1.69"/>
            </g>
            <ellipse class="cls-6" cx="86.47" cy="97.23" rx=".98" ry=".97"/>
            <path class="cls-9" d="M87.99,98.98c-.58.15-2.26.11-2.26.11-1.71-1.48-2.91-4.16-2.91-4.16-.26.33-1.21.82-1.69,1.06.19,1.67.56,3.16,1.24,3.88h5.12s-.02-.04.56-.09c.02.06.06.11.09.17,0-.04.04-.07.04-.13l-.2-.84h.02Z"/>
            <path class="cls-6" d="M92.32,91c1.54.5,9.02.74,12.14.74s10.6-.24,12.14-.74l-1.23,3.29c-1.37.5-8.11.74-10.9.74s-9.52-.24-10.9-.74l-1.23-3.29h-.04Z"/>
          </g>
          <g>
            <circle class="cls-5" cx="120.48" cy="91.18" r="2.65"/>
            <circle class="cls-5" cx="115.87" cy="92.39" r="1.43"/>
          </g>
        </g>
        <g>
          <g>
            <g>
              <rect class="cls-6" height="16.41" rx=".63" ry=".63" width="6.44" x="48.68" y="88.58"/>
              <rect class="cls-6" height="16.41" rx=".63" ry=".63" width="6.44" x="9.51" y="88.58"/>
            </g>
            <g>
              <path class="cls-6" d="M50.03,82.92c1.63.17,3.27.17,4.92,0,.37-.04.76-.37.76-.67-.02-.84-.33-1.73-.76-2.64-.11-.24-.41-.43-.67-.46-1.41-.11-2.82-.09-4.23.06-.32.04-.67.3-.74.58-.22.85-.22,1.71,0,2.58.07.28.43.54.74.58l-.02-.02Z"/>
              <path class="cls-6" d="M14.13,82.92c-1.63.17-3.27.17-4.92,0-.37-.04-.76-.37-.76-.67.02-.84.33-1.73.76-2.64.11-.24.41-.43.67-.46,1.41-.11,2.82-.09,4.23.06.32.04.67.3.74.58.22.85.22,1.71,0,2.58-.07.28-.43.54-.74.58l.02-.02Z"/>
            </g>
            <path class="cls-6" d="M8.86,88.1c.11-.87.72-.63.72-1.58s4.2-5.22,4.36-5.81c.17-.58,2.39-6.57,3.06-7.42.22-.3.59-.45.84-.65.45-.35.97-.56,1.52-.61,6.5-.61,12.7-.65,12.7-.65,0,0,6.29.04,12.86.65.48.04.95.22,1.34.52.24.19.58.37.87.71.67.74,2.9,6.85,3.06,7.42s4.36,4.84,4.36,5.81.61.71.72,1.58c.09.67.95,9.6-1.15,11.75h-5.12s.02-.04-.56-.09c-.19.43-.63,1.37-1.13,1.37h-30.5c-.5,0-.93-.95-1.13-1.37-.58.06-.56.09-.56.09h-5.12c-2.1-2.17-1.24-11.08-1.15-11.75v.04Z"/>
            <path class="cls-2" d="M32.08,80.94c-2.77.19-14.52-.35-15.44-.59-.95-.07-1.26-.5-1.04-1.21.3-.91,1.86-4.81,2.67-5.59.74-.63,10.27-1.15,13.79-1.17,3.53,0,13.07.54,13.79,1.17.82.76,2.38,4.68,2.67,5.59.22.71-.09,1.13-1.04,1.21-.93.24-12.66.76-15.44.59h.04Z"/>
            <g>
              <g>
                <path class="cls-6" d="M52.57,93.65c-.13.33-6.13.33-7.98.15-.56-.06.78-3.08,1.04-3.29.69-.54,2.23-1.08,3.55-1.48,1.06-.32,2.06-.22,2.41-.17s1.37,1.63,1.47,1.95-.33,2.36-.48,2.82v.02Z"/>
                <path class="cls-6" d="M50.87,89.53c.3-.11.54-.2.67-.2h0c.06.02.28.2.67.78.28.41.48.76.56.89,0,.35-.26,1.74-.43,2.32-.17.04-.54.09-1.11.11l-.35-3.9Z"/>
              </g>
              <ellipse class="cls-6" cx="48.92" cy="91.63" rx="1.71" ry="1.69"/>
            </g>
            <g>
              <path class="cls-6" d="M11.79,93.65c.13.33,6.13.33,7.98.15.56-.06-.78-3.08-1.04-3.29-.69-.54-2.23-1.08-3.55-1.48-1.06-.32-2.06-.22-2.41-.17s-1.37,1.63-1.47,1.95.33,2.36.48,2.82v.02Z"/>
              <path class="cls-6" d="M17.16,91.63c0,.93-.76,1.69-1.71,1.69s-1.71-.76-1.71-1.69.76-1.69,1.71-1.69,1.71.76,1.71,1.69Z"/>
            </g>
            <ellipse class="cls-6" cx="50.05" cy="97.23" rx=".98" ry=".97"/>
            <path class="cls-9" d="M48.53,98.98c.58.15,2.26.11,2.26.11,1.71-1.48,2.91-4.16,2.91-4.16.26.33,1.21.82,1.69,1.06-.19,1.67-.56,3.16-1.24,3.88h-5.12s.02-.04-.56-.09c-.02.06-.06.11-.09.17,0-.04-.04-.07-.04-.13l.2-.84h-.02Z"/>
            <path class="cls-6" d="M44.2,91c-1.54.5-9.02.74-12.14.74s-10.6-.24-12.14-.74l1.23,3.29c1.37.5,8.11.74,10.9.74s9.52-.24,10.9-.74l1.23-3.29h.04Z"/>
          </g>
          <g>
            <circle class="cls-5" cx="16.04" cy="91.18" r="2.65"/>
            <path class="cls-5" d="M22.08,92.39c0,.8-.65,1.43-1.43,1.43s-1.43-.65-1.43-1.43.65-1.43,1.43-1.43,1.43.65,1.43,1.43Z"/>
          </g>
        </g>
        <path class="cls-6" d="M4.92,104.96h126.15c1.19,0,2.13.97,2.13,2.13v2.39H2.79v-2.39c0-1.19.97-2.13,2.13-2.13Z"/>
      </g>
      <g>
        <g>
          <path class="cls-3" d="M37.06,70.63l-8.85-1.21c-.67-.09-1.11-.74-1-1.43l.5-2.95c.09-.59.59-1.02,1.15-1.02h8.22v6.59l-.02.02Z"/>
          <path class="cls-3" d="M98.94,70.63l8.85-1.21c.67-.09,1.11-.74,1-1.43l-.5-2.95c-.09-.59-.59-1.02-1.15-1.02h-8.22v6.59l.02.02Z"/>
        </g>
        <path class="cls-3" d="M88.51,101.13h-41.02c-.43,0-.82-.24-1.02-.63l-2-3.68h47.09l-2,3.68c-.2.39-.59.63-1.02.63h-.02Z"/>
        <g>
          <path class="cls-8" d="M31.8,81.73h8.52c.57,0,1.04.47,1.04,1.04v25.58c0,.57-.47,1.04-1.04,1.04h-8.52c-.57,0-1.04-.47-1.04-1.04v-25.58c0-.57.47-1.04,1.04-1.04Z"/>
          <path class="cls-8" d="M95.68,81.73h8.52c.57,0,1.04.47,1.04,1.04v25.58c0,.57-.47,1.04-1.04,1.04h-8.52c-.57,0-1.04-.47-1.04-1.04v-25.58c0-.57.47-1.04,1.04-1.04Z"/>
        </g>
        <path class="cls-3" d="M105.68,75.78c-2.36-1.73-4.21-4.77-4.47-6.05s-4.64-14.92-6.74-15.3c-6.66-1.17-21.2-2.19-26.47-2.19s-19.81,1.04-26.47,2.19c-2.1.37-6.48,14.01-6.74,15.3s-2.12,4.33-4.47,6.05c-.87.65-1.69,17.1-.26,23.09.45,1.84.45,2.84,2.97,2.84s10.6.19,12.62-1,2.97-2.19,5.51-2.19,12.79.28,16.82.28,14.27-.28,16.82-.28,3.51,1,5.51,2.19c2.02,1.19,10.08,1,12.62,1s2.54-1,2.97-2.84c1.43-5.98.61-22.44-.26-23.09h.04Z"/>
        <path class="cls-7" d="M93.84,56.36c-12.03-1.32-21.81-1.65-25.84-1.65s-13.81.32-25.84,1.65c-.78.09-4.55,11.01-4.29,11.43.26.43,25.23-.5,30.15-.5s29.89.93,30.15.5-3.51-11.34-4.29-11.43h-.04Z"/>
        <path class="cls-4" d="M86.34,90.07c-.02-2.95-1.08-6.53-1.63-8.13-.17-.5-.63-.85-1.15-.85-2.93-.07-9.99-.07-15.52,0-5.53-.06-12.59-.06-15.52,0-.52,0-.97.35-1.15.85-.56,1.6-1.6,5.18-1.63,8.13.04.41.07.8.11,1.21.54,1.08,2.93,2.62,3.75,2.95.93.22,11.27.15,14.44.33,3.17-.19,13.51-.11,14.44-.33.82-.35,3.19-1.87,3.75-2.95.04-.41.07-.8.11-1.21Z"/>
        <g>
          <circle class="cls-7" cx="35.98" cy="83.31" r="3.47"/>
          <circle class="cls-7" cx="42.96" cy="84.28" r="2.49"/>
        </g>
        <g>
          <circle class="cls-7" cx="100.11" cy="83.31" r="3.47"/>
          <circle class="cls-7" cx="93.12" cy="84.28" r="2.49"/>
        </g>
      </g>
    </g>
  </g>
</svg>