<svg xmlns:xlink="http://www.w3.org/1999/xlink" id="Layer_1" data-name="Layer 1" xmlns="http://www.w3.org/2000/svg" width="16"  height="17" ><title>Instagram_footer_logo</title><path d="M8,0C5.83,0,5.55,0,4.7.05A5.85,5.85,0,0,0,2.76.42,4,4,0,0,0,.42,2.76,5.85,5.85,0,0,0,.05,4.7C0,5.55,0,5.83,0,8s0,2.45.05,3.3a5.85,5.85,0,0,0,.37,1.94,4,4,0,0,0,2.34,2.34A5.85,5.85,0,0,0,4.7,16C5.55,16,5.83,16,8,16s2.45,0,3.3-.05a5.85,5.85,0,0,0,1.94-.37,4,4,0,0,0,2.34-2.34A5.85,5.85,0,0,0,16,11.3c0-.85.05-1.13.05-3.3S16,5.55,16,4.7a5.85,5.85,0,0,0-.37-1.94A4,4,0,0,0,13.24.42,5.85,5.85,0,0,0,11.3.05C10.45,0,10.17,0,8,0ZM8,1.44c2.14,0,2.39,0,3.23.05a4.33,4.33,0,0,1,1.49.27,2.67,2.67,0,0,1,1.52,1.52,4.33,4.33,0,0,1,.27,1.49c0,.84.05,1.09.05,3.23s0,2.39-.05,3.23a4.33,4.33,0,0,1-.27,1.49,2.67,2.67,0,0,1-1.52,1.52,4.33,4.33,0,0,1-1.49.27c-.84,0-1.09.05-3.23.05s-2.39,0-3.23-.05a4.33,4.33,0,0,1-1.49-.27,2.67,2.67,0,0,1-1.52-1.52,4.33,4.33,0,0,1-.27-1.49c0-.84-.05-1.09-.05-3.23s0-2.39.05-3.23a4.33,4.33,0,0,1,.27-1.49A2.67,2.67,0,0,1,3.28,1.76a4.33,4.33,0,0,1,1.49-.27c.84,0,1.09-.05,3.23-.05" transform="translate(0 0)" style="fill:#ffffff"/><path d="M8,10.67A2.67,2.67,0,1,1,10.67,8,2.68,2.68,0,0,1,8,10.67ZM8,3.89A4.11,4.11,0,1,0,12.11,8,4.11,4.11,0,0,0,8,3.89Z" transform="translate(0 0)" style="fill:#ffffff"/><path d="M13.23,3.73a1,1,0,1,1-1-1,1,1,0,0,1,1,1Z" transform="translate(0 0)" style="fill:#ffffff"/></svg>