<svg xmlns:xlink="http://www.w3.org/1999/xlink" xmlns="http://www.w3.org/2000/svg" fill="none" height="48" viewBox="0 0 40 48" width="40">
<path clip-rule="evenodd" d="M10.4538 19.3684C10.5694 19.6438 10.4376 19.96 10.1631 20.0739C10.0951 20.102 10.0245 20.1156 9.95567 20.1156C9.74403 20.1156 9.54344 19.9898 9.45759 19.7824C9.2485 19.2784 8.42998 19.2801 8.22088 19.7815C8.10614 20.0586 7.78995 20.187 7.51626 20.0748C7.24172 19.9609 7.10997 19.6447 7.22472 19.3693C7.49586 18.7131 8.12994 18.289 8.83966 18.289C9.54769 18.289 10.1818 18.7131 10.4538 19.3684ZM23.0359 14.2237C22.9653 14.4583 22.7511 14.6078 22.5182 14.6078C22.4672 14.6078 22.4154 14.601 22.3635 14.5849C20.0355 13.8837 17.4422 13.791 15.0104 14.3571C14.7206 14.4217 14.4299 14.2441 14.3636 13.9534C14.2965 13.6627 14.4758 13.3728 14.7665 13.3048C17.381 12.6971 20.1689 12.7974 22.6746 13.5513C22.9602 13.638 23.1217 13.9381 23.0359 14.2237ZM36.5981 19.0829C36.4978 19.3099 36.3558 19.5419 36.1875 19.7655C35.5373 19.3626 35.1115 18.8441 35.035 18.6936C34.9534 18.516 34.9602 18.2661 35.052 18.0417C35.1064 17.91 35.2407 17.6737 35.5246 17.5674C35.6767 17.5105 35.8144 17.4816 35.9376 17.4816C36.281 17.4816 36.5258 17.6983 36.7111 18.1471C36.8301 18.4395 36.7154 18.8177 36.5981 19.0829ZM27.9453 34.6034C27.9198 34.6 27.8943 34.5974 27.8671 34.5974H25.6997C25.403 34.5974 25.1608 34.8388 25.1608 35.1372C25.1608 35.4338 25.403 35.6769 25.6997 35.6769H27.4957C27.2738 36.2013 27.0698 36.6765 26.893 37.0853H23.0988L23.6232 34.1334C23.6563 33.9481 23.5917 33.7611 23.4515 33.6353C23.3113 33.512 23.1175 33.467 22.9381 33.5214C20.225 34.3331 17.4091 34.4411 14.5447 33.7866C14.095 33.699 13.0377 33.3718 12.9595 33.3454C12.8226 33.2978 12.6688 33.3072 12.5387 33.3735C12.4078 33.4398 12.3092 33.5545 12.2667 33.6948L11.9854 34.5991C11.9701 34.5983 11.9557 34.5974 11.9395 34.5974H9.95568C9.65734 34.5974 9.41595 34.8388 9.41595 35.1372C9.41595 35.4338 9.65734 35.6769 9.95568 35.6769H11.6514L11.2145 37.0853H7.46356L8.46568 31.4458C8.50393 31.2307 8.40958 31.0148 8.22514 30.8967C5.0964 28.8924 2.2966 26.4768 1.07859 25.3804V20.9707H3.32761C3.55795 20.9707 3.76194 20.8254 3.83844 20.6078C4.43257 18.896 6.58385 16.8169 7.7398 15.7001C7.92935 15.5165 7.9574 15.2232 7.8095 15.0056L5.44659 11.5692C7.09893 10.8918 9.40065 10.6759 11.8256 12.7014C12.0033 12.8501 12.146 12.9615 12.3806 12.9428C12.4325 12.9385 12.4835 12.9258 12.5302 12.9054C14.4316 12.1914 16.3517 11.8285 18.2403 11.8285C25.7898 11.8285 31.9325 16.8492 31.9325 23.0209C31.9325 24.6553 29.6325 30.5465 27.9453 34.6034ZM39.9376 20.136C39.7999 19.8734 39.4743 19.7714 39.2091 19.9108C38.5495 20.2567 37.8789 20.3536 37.2049 20.1964C37.3545 19.9754 37.4837 19.7467 37.5848 19.5198C37.8755 18.8636 37.918 18.2482 37.7081 17.7383C37.2406 16.595 36.2597 16.1403 35.1471 16.5559C34.6524 16.7404 34.2649 17.122 34.0558 17.6303C33.8484 18.1301 33.8475 18.6962 34.0541 19.1433C34.1969 19.4552 34.7017 20.0612 35.431 20.5576C35.1454 20.7939 34.8471 20.9792 34.57 21.0786C33.5449 21.4501 33.0502 21.3795 33.0162 21.3753C32.9695 21.3642 32.9227 21.36 32.8769 21.3617C31.8977 15.377 25.7074 10.7489 18.2404 10.7489C16.3135 10.7489 14.3577 11.1008 12.4223 11.7961C9.29273 9.2428 6.33144 9.87603 4.3935 10.8662C4.25581 10.9368 4.15466 11.0634 4.11641 11.2139C4.07731 11.3652 4.10621 11.5241 4.19546 11.6525L6.66207 15.2427C5.09388 16.7769 3.61663 18.3808 2.96045 19.8912H0.538889C0.24055 19.8912 -0.000841578 20.1326 8.39223e-06 20.431V25.62C-0.000841578 25.7713 0.0629062 25.9167 0.175952 26.0195C1.26646 27.0114 4.10366 29.4976 7.3412 31.6098L6.28894 37.5307C6.26004 37.6879 6.30339 37.8494 6.40538 37.9718C6.50823 38.0933 6.66037 38.1647 6.82017 38.1647H11.6106C11.8477 38.1647 12.0568 38.0117 12.1265 37.7856L13.1371 34.5286C13.5222 34.6425 14.0254 34.7853 14.322 34.8422C17.0377 35.4644 19.7746 35.4338 22.412 34.7836L21.9233 37.5307C21.8961 37.6879 21.9394 37.8494 22.0414 37.9718C22.1434 38.0933 22.2956 38.1647 22.4545 38.1647H27.2458C27.4608 38.1647 27.6546 38.0372 27.7405 37.8409C27.9564 37.3488 33.0111 25.756 33.0111 23.0208C33.0111 22.8321 33.0052 22.6443 32.9958 22.4581C33.046 22.4615 33.1029 22.4641 33.1692 22.4641C33.5237 22.4641 34.1025 22.3961 34.938 22.0935C35.4438 21.9099 35.9784 21.547 36.4493 21.0922C36.4892 21.1084 36.5309 21.122 36.5725 21.1373C37.6154 21.4917 38.7008 21.3991 39.7115 20.8653C39.9749 20.7267 40.0769 20.4004 39.9376 20.136Z" fill="black" fill-rule="evenodd"/>
</svg>