<svg xmlns:xlink="http://www.w3.org/1999/xlink" xmlns="http://www.w3.org/2000/svg" fill="none" height="48" viewBox="0 0 40 48" width="40">
<path clip-rule="evenodd" d="M29.9592 9.0345C29.8376 8.75363 29.9671 8.42638 30.2488 8.30475C30.9479 8.00113 31.8002 8.15688 32.3663 8.695C32.9342 9.23575 33.0969 10.0696 32.7793 10.8177C32.6901 11.0295 32.4844 11.1564 32.2683 11.1564C32.1957 11.1564 32.1222 11.1424 32.0513 11.1118C31.7678 10.9919 31.6374 10.6664 31.7573 10.3837C31.8641 10.1318 31.8789 9.766 31.6007 9.50088C31.3627 9.27338 30.9777 9.19813 30.6898 9.32413C30.4098 9.44838 30.0817 9.31713 29.9592 9.0345ZM30.5113 36.2295L28.5391 38.2061L21.2914 25.5904L25.6061 21.2749L30.5113 36.2295ZM27.7236 23.9804C28.1217 23.5823 28.8138 23.5823 29.2119 23.9804C29.6206 24.3899 29.6206 25.0566 29.2119 25.467L28.4078 26.2493L27.6781 24.0268L27.7236 23.9804ZM31.1964 30.4283C31.6068 30.8378 31.6068 31.5045 31.1964 31.9149L30.5682 32.5449L30.4929 32.6105L29.7658 30.3906C30.1779 30.0275 30.8036 30.0336 31.1964 30.4283ZM15.3441 29.9654L11.7373 32.3436C11.6918 32.3734 11.6603 32.4136 11.6262 32.453L10.9376 30.5079C10.9341 30.4991 10.9262 30.4939 10.9227 30.486C10.8912 30.409 10.8466 30.3381 10.7844 30.2812C10.7783 30.2751 10.7696 30.2734 10.7643 30.269C10.7153 30.2287 10.6611 30.192 10.5981 30.1693L8.70806 29.4999C8.72206 29.4841 8.73956 29.4745 8.75181 29.457L11.1729 25.7829L28.9792 7.97662C30.0957 6.86012 32.0408 6.861 33.1564 7.97662C33.7147 8.534 34.0227 9.276 34.0227 10.0652C34.0227 10.8545 33.7147 11.5956 33.1564 12.1521L25.5308 19.7786C25.5054 19.797 25.4739 19.8031 25.4521 19.825L20.1933 25.0837C20.1592 25.1179 20.1338 25.1581 20.1111 25.1992L15.3441 29.9654ZM11.4818 39.6963L7.59156 34.301L10.1833 31.7093L12.6132 38.5649L11.4818 39.6963ZM2.54106 28.4927L9.39844 30.9226L6.80581 33.5161L1.40969 29.6241L2.54106 28.4927ZM4.85369 10.5719L19.8328 15.4841L15.5138 19.8031L2.87619 12.5432L4.85369 10.5719ZM8.52344 10.5299L9.16744 9.88587C9.57781 9.47462 10.2454 9.47462 10.6549 9.88587C11.0487 10.2796 11.0539 10.9044 10.6908 11.3165L8.47181 10.5885L8.52344 10.5299ZM15.6153 11.8713C16.0257 11.46 16.6933 11.46 17.1028 11.8713C17.5123 12.2816 17.5123 12.9484 17.1028 13.3579L17.0564 13.4043L14.8339 12.6754L15.6153 11.8713ZM33.9422 12.9396C34.7104 12.1723 35.1331 11.1511 35.1331 10.0652C35.1331 8.97937 34.7104 7.95912 33.9422 7.19175C33.1748 6.4235 32.1537 6 31.0687 6C29.9819 6 28.9617 6.4235 28.1934 7.19087L20.7638 14.6205L18.1817 13.7735C18.7128 12.937 18.6174 11.8152 17.8886 11.0855C17.0451 10.2437 15.6731 10.2429 14.8304 11.0864L13.6588 12.2904L11.7916 11.6779C12.2501 10.8545 12.1389 9.7975 11.4407 9.09925C10.5972 8.25662 9.22519 8.25575 8.38256 9.10013L7.70094 9.78262L7.32556 10.2131L4.87556 9.409C4.67606 9.3425 4.45819 9.39413 4.31031 9.54375L1.57594 12.2694C1.45431 12.3919 1.39569 12.5634 1.41844 12.7349C1.44031 12.9064 1.54181 13.0586 1.69231 13.1444L14.7421 20.6414L10.3478 25.0356C10.3216 25.0627 10.2971 25.0925 10.2769 25.124L7.82344 28.8463C7.75956 28.9416 7.74031 29.0501 7.74119 29.1577L2.58131 27.329C2.38094 27.2572 2.15431 27.3089 2.00294 27.4594L0.162812 29.2995C0.0473122 29.415 -0.0113128 29.5751 0.00181223 29.737C0.0140622 29.8997 0.0980622 30.0485 0.230187 30.143L6.46544 34.6405L10.9629 40.8758C11.0574 41.0079 11.2062 41.0919 11.3689 41.1041C11.3838 41.105 11.3987 41.1059 11.4136 41.1059C11.5606 41.1059 11.7023 41.0481 11.8064 40.9431L13.6457 39.1021C13.7971 38.9516 13.8487 38.7267 13.7769 38.5246L11.9394 33.3359C11.9744 33.3429 12.0068 33.3621 12.0427 33.3621C12.1486 33.3621 12.2544 33.3333 12.3481 33.2703L16.0029 30.8622C16.0344 30.8421 16.0633 30.8185 16.0896 30.7914L20.4777 26.4041L27.9371 39.39C28.0237 39.5396 28.1751 39.6411 28.3466 39.6639C28.3711 39.6674 28.3956 39.6691 28.4192 39.6691C28.5662 39.6691 28.7071 39.6105 28.8121 39.5055L31.5394 36.7729C31.6873 36.6241 31.7381 36.4062 31.6733 36.2076L30.8692 33.7568L31.3382 33.3446L31.9831 32.7006C32.8257 31.8571 32.8257 30.486 31.9831 29.6416C31.2848 28.9451 30.2278 28.834 29.4044 29.2908L28.7928 27.4244L29.9968 26.2528C30.8403 25.4093 30.8403 24.0372 29.9968 23.1946C29.2933 22.4902 28.1401 22.3966 27.3106 22.9067L26.4863 20.3946L33.9422 12.9396Z" fill="#141414" fill-rule="evenodd"/>
</svg>