<svg width="37" height="65" preserveAspectRatio="xMidYMid meet" version="1.1" xmlns="http://www.w3.org/2000/svg" xmlns:xlink="http://www.w3.org/1999/xlink"><g id="Page-1" stroke="none" stroke-width="1" fill="none" fill-rule="evenodd"><g id="Nav_CC-Copy" transform="translate(-1031.000000, -25.000000)" fill="#011728"><path d="M1034.87986,30.8773087 C1034.87986,32.0275396 1035.74687,32.8759894 1036.87731,32.8759894 C1038.03867,32.8759894 1038.87599,31.9718832 1038.87599,30.8773087 C1038.87599,29.7431563 1038.02507,28.878628 1036.87731,28.878628 C1035.74439,28.878628 1034.87986,29.7295515 1034.87986,30.8773087 L1034.87986,30.8773087 Z M1034.04873,30.8773087 C1034.04873,29.2867744 1035.28306,28.0474934 1036.87731,28.0474934 C1038.47403,28.0474934 1039.70712,29.289248 1039.70712,30.8773087 C1039.70712,32.4332124 1038.48268,33.707124 1036.87731,33.707124 C1035.28554,33.707124 1034.04873,32.4715534 1034.04873,30.8773087 L1034.04873,30.8773087 Z M1036.87731,39.0501319 L1040.44055,34.439314 C1041.67241,32.8289908 1041.92348,31.7888358 1041.92348,30.8773087 C1041.92348,28.0932553 1039.6861,25.8311346 1036.87731,25.8311346 C1034.08954,25.8311346 1031.83113,28.0734664 1031.83113,30.8773087 C1031.83113,31.7875989 1032.08097,32.8252803 1033.3153,34.439314 L1036.87731,39.0501319 Z M1042.75462,30.8773087 C1042.75462,32.4579485 1042.01624,33.7664908 1041.03422,35.0329815 L1037.11601,40 L1036.64108,40 L1032.72287,35.0329815 C1031.73343,33.803595 1031,32.461659 1031,30.8773087 C1031,27.6418206 1033.61585,25 1036.87731,25 C1040.12269,25 1042.75462,27.6220317 1042.75462,30.8773087 L1042.75462,30.8773087 Z" id="Pin"></path></g></g></svg>