<svg xmlns:xlink="http://www.w3.org/1999/xlink" xmlns="http://www.w3.org/2000/svg" fill="none" height="48" viewBox="0 0 40 48" width="40">
<path clip-rule="evenodd" d="M24.1089 24.2574C24.1089 24.5645 23.8604 24.813 23.5532 24.813H5.39525C5.08813 24.813 4.83963 24.5645 4.83963 24.2574C4.83963 23.9502 5.08813 23.7017 5.39525 23.7017H23.5532C23.8604 23.7017 24.1089 23.9502 24.1089 24.2574ZM16.3643 27.214C16.3643 27.5211 16.1158 27.7696 15.8086 27.7696H5.39525C5.08813 27.7696 4.83963 27.5211 4.83963 27.214C4.83963 26.9078 5.08813 26.6593 5.39525 26.6593H15.8086C16.1158 26.6593 16.3643 26.9078 16.3643 27.214ZM1.11125 16.6221H35.7787V13.4555H1.11125V16.6221ZM1.11125 11.569C1.11125 10.7649 1.76487 10.1112 2.56812 10.1112H34.3219C35.1251 10.1112 35.7787 10.7649 35.7787 11.569V12.3442H1.11125V11.569ZM2.56813 31.6975C1.76487 31.6975 1.11125 31.0439 1.11125 30.2397V17.7325H35.7787V24.6599C36.1725 24.8769 36.5444 25.1289 36.89 25.4124V11.569C36.89 10.1524 35.7385 9 34.3219 9H2.56813C1.15237 9 0 10.1524 0 11.569V30.2397C0 31.6564 1.15237 32.8087 2.56813 32.8087H25.3295C25.235 32.4474 25.1615 32.0781 25.1248 31.6975H2.56813ZM36.1603 30.3159C36.3773 30.5329 36.3773 30.8855 36.1603 31.1025C36.0518 31.211 35.91 31.2653 35.7674 31.2653C35.6256 31.2653 35.4839 31.211 35.3745 31.1025L32.8659 28.593V34.732C32.8659 35.0383 32.6174 35.2876 32.3102 35.2876C32.0031 35.2876 31.7546 35.0383 31.7546 34.732V28.5947L29.2477 31.1025C29.0308 31.3195 28.679 31.3195 28.462 31.1025C28.245 30.8855 28.245 30.5329 28.462 30.3159L31.9182 26.8596C32.1353 26.6426 32.487 26.6426 32.704 26.8596L36.1603 30.3159ZM32.3111 37.1041C28.9415 37.1041 26.2001 34.3619 26.2001 30.9922C26.2001 27.6226 28.9415 24.8812 32.3111 24.8812C35.6808 24.8812 38.4221 27.6226 38.4221 30.9922C38.4221 34.3619 35.6808 37.1041 32.3111 37.1041ZM32.3111 23.77C28.329 23.77 25.0889 27.0101 25.0889 30.9922C25.0889 34.9752 28.329 38.2145 32.3111 38.2145C36.2933 38.2145 39.5334 34.9752 39.5334 30.9922C39.5334 27.0101 36.2933 23.77 32.3111 23.77Z" fill="#141414" fill-rule="evenodd"/>
</svg>