<svg xmlns:xlink="http://www.w3.org/1999/xlink" xmlns="http://www.w3.org/2000/svg" fill="none" height="48" viewBox="0 0 40 48" width="40">
<path clip-rule="evenodd" d="M27.5814 38.064H33.2601V18.6373H27.5814V38.064ZM17.4821 38.064H23.1661V25.1053H17.4821V38.064ZM7.37676 38.064H13.0564V31.7701H7.37676V38.064ZM37.1101 36.0497H34.388V18.0816C34.388 17.7745 34.1386 17.526 33.8324 17.526H27.0258C26.7195 17.526 26.471 17.7745 26.471 18.0816V35.9964H24.2783V24.5496C24.2783 24.2425 24.0289 23.994 23.7218 23.994H16.9151C16.608 23.994 16.3595 24.2425 16.3595 24.5496V35.9964H14.1668V31.2154C14.1668 30.9083 13.9183 30.6597 13.6111 30.6597H6.80451C6.49738 30.6597 6.24888 30.9083 6.24888 31.2154V36.0497H4.11038V9.55562C4.11038 9.24938 3.86188 9 3.55388 9C3.24763 9 2.99826 9.24938 3.00001 9.55562V36.6054C2.99826 36.9125 3.24763 37.161 3.55388 37.161H6.24888V38.6196C6.24888 38.9259 6.49738 39.1753 6.80451 39.1753H13.6111C13.9183 39.1753 14.1668 38.9259 14.1668 38.6196V37.1076H16.3595V38.6196C16.3595 38.9259 16.608 39.1753 16.9151 39.1753H23.7218C24.0289 39.1753 24.2783 38.9259 24.2783 38.6196V37.1076H26.471V38.6196C26.471 38.9259 26.7195 39.1753 27.0258 39.1753H33.8324C34.1386 39.1753 34.388 38.9259 34.388 38.6196V37.161H37.1101C37.4164 37.161 37.6658 36.9125 37.6658 36.6054C37.6658 36.2991 37.4164 36.0497 37.1101 36.0497Z" fill="black" fill-rule="evenodd"/>
</svg>