<svg xmlns:xlink="http://www.w3.org/1999/xlink" xmlns="http://www.w3.org/2000/svg" data-name="Layer 3" id="Layer_3" viewBox="0 0 40 48" width="40"  height="48" >
  <defs>
    <style>
      .cls-1 {
        fill: #141414;
        fill-rule: evenodd;
        stroke-width: 0px;
      }
    </style>
  </defs>
  <path class="cls-1" d="m26.08,21.2c-.39,0-.72-.32-.72-.71s.32-.71.72-.71.72.32.72.71-.32.71-.72.71h0Zm0-2.43c-.96,0-1.74.77-1.74,1.72s.78,1.72,1.74,1.72,1.74-.77,1.74-1.72-.78-1.72-1.74-1.72h0Zm-16.5.44l1.23,8.79c.04.28-.16.53-.44.57-.02,0-.05,0-.07,0-.25,0-.47-.18-.51-.44l-1.23-8.79c-.04-.28.16-.53.44-.57.28-.04.54.15.58.43h0Zm22.77,20.48c-.14.19-.35.3-.58.3H8.21c-.23,0-.44-.11-.58-.29-.14-.19-.17-.42-.1-.64l1.95-5.79-2.31-16.57h25.65l-2.36,16.45-.02.12,2.01,5.79c.08.22.04.45-.09.64h0ZM14.33,13.57c0-3.07,2.52-5.56,5.62-5.56s5.62,2.49,5.62,5.56v2.11h-11.24v-2.11Zm17.16,19.59l2.51-17.49h-7.41v-2.11c0-3.62-2.98-6.57-6.64-6.57s-6.64,2.95-6.64,6.57v2.11h-7.31l2.44,17.49-1.88,5.57c-.18.53-.09,1.09.24,1.55.33.45.84.71,1.41.71h23.56c.56,0,1.09-.27,1.41-.72.33-.45.41-1.03.23-1.56l-1.93-5.56Zm-17.67-11.97c-.39,0-.72-.32-.72-.71s.32-.71.72-.71.72.32.72.71-.32.71-.72.71h0Zm0-2.43c-.96,0-1.74.77-1.74,1.72s.78,1.72,1.74,1.72,1.74-.77,1.74-1.72-.78-1.72-1.74-1.72h0Z"/>
</svg>