<svg xmlns:xlink="http://www.w3.org/1999/xlink" xmlns="http://www.w3.org/2000/svg" data-name="Layer 5" id="Layer_5" viewBox="0 0 40 48" width="40"  height="48" >
  <defs>
    <style>
      .cls-1 {
        fill-rule: evenodd;
        stroke-width: 0px;
      }
    </style>
  </defs>
  <path class="cls-1" d="m16.82,20.55s-.08-.06-.12-.09c-.05-.03-.1-.06-.16-.08-.02,0-.04-.02-.06-.02-.07-.02-.15-.05-.23-.06-.08-.02-.16-.02-.25-.02-.71,0-1.3.54-1.3,1.21,0,.33.15.64.38.85.06.06.13.1.2.15.13.09.28.14.44.18.09.02.17.02.26.02h1.3v-1.23c0-.36-.19-.69-.47-.9h0Zm7.21,2.13c.09,0,.17,0,.26-.02.16-.03.3-.1.43-.18.35-.22.58-.59.58-1,0-.67-.59-1.21-1.3-1.21-.16,0-.33.03-.48.08-.06.02-.11.05-.17.08-.37.21-.62.59-.63,1.01v1.23h1.3Zm4.89-10.04c-.43-.66-.95-1.27-1.54-1.82-1.88-1.75-4.49-2.82-7.37-2.82-1.08,0-2.12.15-3.1.43-.98.28-1.89.69-2.72,1.21-.29.17-.56.35-.81.56-.25.19-.5.39-.74.62-1.06.98-1.89,2.17-2.42,3.51-.11.29-.22.6-.3.91-.04.15-.08.31-.11.47-.04.16-.07.31-.1.47-.23,1.38-.11,2.81.3,4.14.37,1.19.95,2.31,1.62,3.37.7,1.09,1.6,2.09,2.34,3.15.58.84.98,1.75,1.25,2.71.11.4.22.86.31,1.38.07.36.13.76.19,1.19h2.36l-.63-8.43h-1.45s-.09,0-.12,0c-.04,0-.09,0-.12,0-.09-.02-.16-.02-.23-.04-.23-.04-.44-.11-.63-.21-.76-.37-1.28-1.1-1.28-1.96,0-.39.11-.78.33-1.12.52-.83,1.59-1.26,2.6-1.04.93.21,1.86,1.03,1.86,1.96,0,.02.11,1.42.11,1.42h3.02s.06-.88.06-.95c.03-.42.09-.84.3-1.22.41-.76,1.23-1.26,2.15-1.26,1.32,0,2.38,1,2.38,2.21,0,.82-.47,1.52-1.17,1.9-.1.06-.21.1-.31.14-.2.08-.42.14-.65.16-.08,0-.17.02-.24.02h-1.46l-.63,8.43h2.36c.06-.43.12-.83.19-1.19.09-.51.2-.96.31-1.37.24-.86.58-1.7,1.08-2.46.43-.66.95-1.26,1.43-1.88,1.49-1.92,2.8-4.14,3.06-6.53.03-.31.05-.63.05-.95v-.08c0-.34-.02-.66-.05-.99-.03-.32-.09-.64-.16-.96-.14-.63-.35-1.24-.61-1.82-.07-.15-.14-.29-.21-.43-.15-.28-.3-.56-.48-.82h0Zm-9.73,19.48h1.64l.62-8.43h-2.88l.62,8.43Zm5.13,3.75v-2.73h-8.61v3.61c0,.12.01.23.04.35.03.14.09.28.16.4.07.12.16.24.27.34.1.1.22.19.35.27.14.07.27.14.42.18.15.04.3.06.45.09.13.02.22.05.3.13.11.11.12.27.16.4.09.29.17.52.31.8.04.07.17.25.17.25h3.32s.03-.03.05-.04c.11-.14.18-.29.26-.45.08-.18.15-.37.19-.56.02-.1.04-.2.09-.29.13-.23.4-.24.65-.28.18-.03.36-.09.52-.17.13-.07.26-.15.37-.25.11-.1.21-.21.29-.33.08-.12.14-.26.18-.39.04-.14.07-.29.07-.43v-.89Zm7.19-18.22v.08c0,1.4-.31,2.77-.9,4.07-1.1,2.37-2.09,3.61-2.88,4.6-.13.12-.23.29-.34.43-.11.15-.22.28-.32.42-.21.3-.4.6-.57.91-.5.94-.77,1.99-.95,3.02-.1.61-.16,1.23-.17,1.84,0,.6.03,1.21.03,1.81v1.92c0,1.25-.96,2.31-2.24,2.55,0,.04-.03.09-.04.13-.15.47-.41.96-.71,1.26-.06.06-.12.1-.18.14-.1.07-.19.11-.29.13-.02,0-.03,0-.05,0-.02,0-.03,0-.06,0h-3.64s-.08-.01-.12-.02c-.1-.02-.21-.06-.3-.14-.06-.04-.11-.08-.16-.14-.12-.11-.24-.26-.33-.41-.05-.08-.1-.18-.15-.27-.11-.22-.2-.44-.27-.66,0-.02,0-.03-.02-.05-1.23-.26-2.17-1.26-2.2-2.48,0-.02,0-.05,0-.07v-.07c0-.07,0-.14,0-.21v-3.35c0-.23.02-.47,0-.69,0-.23-.03-.45-.05-.68-.07-.51-.19-1.01-.3-1.51-.45-1.96-1.1-2.76-1.97-3.85-.79-1-1.78-2.23-2.88-4.6-.59-1.3-.89-2.67-.9-4.07v-.08c0-1.45.31-2.83.88-4.09.18-.42.41-.83.65-1.22.1-.17.22-.34.34-.51.24-.34.49-.66.76-.97.55-.61,1.17-1.17,1.85-1.66.42-.31.86-.58,1.32-.82.23-.12.47-.24.71-.35.26-.11.52-.22.78-.31.26-.1.53-.19.8-.26,1.08-.31,2.22-.48,3.4-.48s2.34.17,3.41.48c.18.05.36.1.54.17.53.18,1.04.39,1.54.64,3.58,1.81,6.02,5.34,6.02,9.38h0Zm-8.54,18.63h-5.93c-.3,0-.54.22-.54.5s.24.51.54.51h5.93c.3,0,.54-.23.54-.51s-.24-.5-.54-.5h0Zm0-2.04h-5.93c-.3,0-.54.22-.54.5s.24.51.54.51h5.93c.3,0,.54-.23.54-.51s-.24-.5-.54-.5h0Zm5.06-19.93c.12.25,0,.55-.27.67-.07.03-.15.04-.22.04-.21,0-.4-.11-.49-.3-1.08-2.22-3.36-3.8-5.94-4.14-.3-.04-.5-.29-.46-.57.04-.28.31-.46.61-.43,2.95.39,5.54,2.2,6.78,4.72h0Z"/>
</svg>