<svg xmlns:xlink="http://www.w3.org/1999/xlink" _ngcontent-web-shell-c1764232976="" xmlns="http://www.w3.org/2000/svg" aria-label="Capital One Home" viewBox="0 0 418 150" role="img" class="site-header__logo ng-star-inserted" width="418"  height="150" ><rect _ngcontent-web-shell-c1764232976="" width="418" height="150.01" style="" fill="none"></rect><path _ngcontent-web-shell-c1764232976="" d="M283.7,108.5h-.1c-17.8,12.6-38.8,25.8-61.5,39.7l-.9.5a.7.7,0,1,0,.8,1.1l.7-.4c19.3-10,41.4-21.9,63.6-34.2l.4-.2A24.7,24.7,0,0,1,283.7,108.5ZM400.5,13.9c-28-30.9-208.6-3.1-285.3,13.7l-1.8.4a.8.8,0,0,0-.6.8.6.6,0,0,0,.8.5l1.8-.3C179,17.7,311.3,2,339.7,30.2c8.7,8.6,6.7,19.7-3.4,32.8a25.7,25.7,0,0,1,11,15.8C386.6,52.7,413,27.7,400.5,13.9Z" transform="translate(0 0)" style="" fill="#CC2427"></path><path _ngcontent-web-shell-c1764232976="" d="M295.1,100.4c.3,10.9,7.2,19.8,16.2,19.8,17.4,0,24.8-21.4,24.3-35.7-.4-10.9-7.4-19.8-16.4-19.8C304.2,64.7,294.5,86,295.1,100.4Zm-9.2-.6c-.7-18.6,13.9-37.6,35-37.6,14.2,0,23.4,9.5,23.9,23.9.7,19.6-12.9,37.6-35,37.6C295.6,123.7,286.4,114.3,285.9,99.8Z" transform="translate(0 0)" style="" fill="#013D5B"></path><path _ngcontent-web-shell-c1764232976="" d="M85.5,94.9a13,13,0,0,1-2.9.8L76,96.9a10.8,10.8,0,0,0-4.6,1.4,3.2,3.2,0,0,0-1.5,2.3,2.1,2.1,0,0,0,1,2.3,7.3,7.3,0,0,0,4.2.9,16.2,16.2,0,0,0,4.4-.7,10.2,10.2,0,0,0,3.6-1.9,5.1,5.1,0,0,0,1.5-2.3A14.7,14.7,0,0,0,85.5,94.9Zm18.4-11.4c-.1,1.7-.4,3.2-.8,5.8L100,106.7a3.2,3.2,0,0,0,1.7,3.6v.7H83.8v-4.4a40.2,40.2,0,0,1-8.6,3.6,31.8,31.8,0,0,1-8.5,1.1c-5.8,0-9.1-.6-11.3-2.6s-3.5-3.4-3.4-6.3a9.6,9.6,0,0,1,2.2-5.1,13.5,13.5,0,0,1,4.7-3.4,28.9,28.9,0,0,1,7.2-2c3.1-.5,7.5-1,13.4-1.5a15.7,15.7,0,0,0,5.8-1.3c1.3-.5,1.7-1,1.9-2s-.2-2.8-2.6-3.3c-6.4-1.2-18.4.8-24.6,2.4l3.3-9.1a162.8,162.8,0,0,1,23.9-2C99.9,75.1,104,78.8,103.9,83.5Z" transform="translate(0 0)" style="" fill="#013D5B"></path><path _ngcontent-web-shell-c1764232976="" d="M155.5,111l6.2-34.9h17.1L172.6,111Zm7.2-42.9c.5-2.9,5-5.2,10.1-5.2s8.7,2.3,8.2,5.2-5,5.2-10.1,5.2S162.2,70.9,162.7,68.1Z" transform="translate(0 0)" style="" fill="#013D5B"></path><path _ngcontent-web-shell-c1764232976="" d="M239.3,95l-2.9.8L229.7,97a10.8,10.8,0,0,0-4.5,1.4,3,3,0,0,0-1.5,2.2,2.2,2.2,0,0,0,.9,2.4c.9.6,2.3.8,4.3.8a16.1,16.1,0,0,0,4.4-.6,10.2,10.2,0,0,0,3.6-1.9,5.1,5.1,0,0,0,1.5-2.3A22.4,22.4,0,0,0,239.3,95Zm18.4-11.5c-.1,1.7-.4,3.3-.8,5.8l-3.1,17.5a3.2,3.2,0,0,0,1.7,3.6v.6H237.6v-4.5a36,36,0,0,1-8.6,3.7,32.2,32.2,0,0,1-8.6,1c-5.7,0-9-.6-11.3-2.6s-3.4-3.4-3.3-6.2a9.5,9.5,0,0,1,2.2-5.2,13.3,13.3,0,0,1,4.7-3.3,25.4,25.4,0,0,1,7.1-2c3.2-.5,7.6-1,13.5-1.5a24,24,0,0,0,5.8-1.3c1.2-.5,1.7-1,1.9-2s-.2-2.8-2.6-3.3c-6.4-1.3-18.4.8-24.6,2.3l3.3-9a161.7,161.7,0,0,1,23.9-2C253.7,75.2,257.8,78.9,257.7,83.5Z" transform="translate(0 0)" style="" fill="#013D5B"></path><path _ngcontent-web-shell-c1764232976="" d="M49.6,98.5A62.3,62.3,0,0,1,35.4,100c-8.1,0-14.6-4-14.2-11.5.2-4.9,6.1-15.3,20.9-15.3a24.3,24.3,0,0,1,13.3,3.6l2.1-12.1a40.3,40.3,0,0,0-16.8-2.8c-19.5.2-38.2,9-40.5,27s20,22.9,29.9,22.9c5.7,0,11.7-.3,17.2-.8Z" transform="translate(0 0)" style="" fill="#013D5B"></path><path _ngcontent-web-shell-c1764232976="" d="M188.2,75.9l1.2-7.1L207.2,65l-1.9,10.9h8.8L212.4,83h-8.5l-5.1,28H181.5l5.2-28h-6.5l1.3-7h6.7Z" transform="translate(0 0)" style="" fill="#013D5B"></path><polygon _ngcontent-web-shell-c1764232976="" points="275 111 257.6 111 266.4 62.4 283.3 62.8 275 111" style="" fill="#013D5B"></polygon><path _ngcontent-web-shell-c1764232976="" d="M133,84.3a10.4,10.4,0,0,0-6.1,2,9.4,9.4,0,0,0-3.3,6c-.6,3.1-.3,5.2.9,6.6a7.1,7.1,0,0,0,5.3,2,10.2,10.2,0,0,0,4.4-.9,8.1,8.1,0,0,0,3.3-2.8,12.5,12.5,0,0,0,1.9-4.6c.5-2.8.1-4.8-1.2-6.2A6.7,6.7,0,0,0,133,84.3Zm-31.1,38.8,8.3-46.8h15l-1.2,6a14.2,14.2,0,0,1,6.3-4.5,27,27,0,0,1,9.7-2c3.9,0,6.3.2,9.2,1.7a12.4,12.4,0,0,1,6,6.6,16.8,16.8,0,0,1,.8,9.5,20.7,20.7,0,0,1-8.4,13.7c-4.6,3.3-8.7,4.2-14.6,4.2a20.4,20.4,0,0,1-5.3-.6,12.1,12.1,0,0,1-3.4-1.3,15.5,15.5,0,0,1-2.8-2.6l-2.8,16.1Z" transform="translate(0 0)" style="" fill="#013D5B"></path><path _ngcontent-web-shell-c1764232976="" d="M411.5,88.6c-.1-2.8-1.5-4.7-4.4-4.7-7,0-14.4,13.7-15.7,19.2C402.8,103.1,411.8,96.3,411.5,88.6Zm1.5,21.5,1.3.9c-3.4,6.9-10.3,12.5-18.5,12.5-6.7,0-12.1-4.4-12.4-12.7-.6-15,13.5-28.9,24.9-28.9,4.9,0,9.5,2.2,9.7,7.5.4,11.9-16.3,15.5-27.3,15.7a14.3,14.3,0,0,0-.4,4.4c.2,5,3.2,9.1,9.3,9.1S410.3,114.3,413,110.1Z" transform="translate(0 0)" style="" fill="#013D5B"></path><path _ngcontent-web-shell-c1764232976="" d="M344.6,88.2l3.9-.4c1.3,0,2.4.3,2.5,1.5s-1.3,6-1.6,7.3l-2.7,11.7c-1,4.8-2.2,9.8-3.2,13.8h6.8l3.8-18.6c11.8-12.2,16.3-16.2,19-16.2a2,2,0,0,1,2.2,2.2c.1,2.1-1.3,7-1.7,8.4l-4,13.5c-.8,3.1-1.5,5.8-1.4,7.8s1.9,4.3,4.5,4.3c5,0,8.7-5.2,11.8-10.3l-.9-1.7c-1.3,2-4.2,6.5-6.6,6.5-.7,0-1.4-.5-1.4-1.7a20.5,20.5,0,0,1,1-5.5L381,94.9c1.1-4.4,1.7-7.2,1.7-8.7s-1.9-4.3-4.5-4.3c-4.5,0-10.5,3.3-23.1,17.8h-.2l1.6-7.1c.9-3.9,1.7-7.9,2.5-10.7A114.5,114.5,0,0,1,344.5,86Z" transform="translate(0 0)" style="" fill="#013D5B"></path></svg>