<svg xmlns:xlink="http://www.w3.org/1999/xlink" xmlns="http://www.w3.org/2000/svg" fill="none" height="48" viewBox="0 0 40 48" width="40">
<path clip-rule="evenodd" d="M35.5556 36.8215V37.7105V38.4009C35.5556 38.8778 35.1671 39.2654 34.6902 39.2654H18.333H1.97662C1.49975 39.2654 1.11125 38.8778 1.11125 38.4009V37.7105V36.8215V35.9325V24.8209C2.03525 25.9628 3.45275 26.6969 5.04087 26.6969H15.9259V28.3227C15.9259 28.8739 16.3747 29.3228 16.926 29.3228H19.7409C20.2921 29.3228 20.741 28.8739 20.741 28.3227V26.6969H31.6724C33.2404 26.6969 34.6395 25.9689 35.5556 24.834V35.9325V36.8215ZM17.0371 28.2115H19.6297V26.6969H17.0371V28.2115ZM1.11125 17.7474V16.0202C1.11125 15.5433 1.49975 15.1548 1.97662 15.1548H34.6902C35.1671 15.1548 35.5556 15.5433 35.5556 16.0202V17.7474V21.6972C35.5556 23.8418 33.8135 25.5857 31.6724 25.5857H5.04087C2.87437 25.5857 1.11125 23.8418 1.11125 21.6972V17.7474ZM24.2217 11.1455V14.0435H12.4451V11.184C16.3012 10.0702 20.3604 10.0605 24.2217 11.1455ZM11.3733 9.31503C11.4257 9.21178 11.5281 9.13128 11.6541 9.09453C13.8626 8.43828 16.135 8.11103 18.4074 8.11103C20.6797 8.11103 22.9521 8.43828 25.1624 9.09453C25.2866 9.13128 25.3881 9.21178 25.4415 9.31503C25.4669 9.36578 25.4923 9.44278 25.4616 9.52766L25.319 9.94503C25.256 10.1218 25.0451 10.2189 24.8447 10.1594C20.6334 8.90903 16.1805 8.90991 11.97 10.1594C11.7714 10.2189 11.5579 10.1218 11.4966 9.94853L11.3514 9.52416C11.3234 9.44278 11.3479 9.36578 11.3733 9.31503ZM34.6903 14.0435H25.333V11.233C25.8011 11.1167 26.2001 10.7894 26.369 10.309L26.5116 9.89253C26.6359 9.53903 26.607 9.15403 26.4303 8.80928C26.2404 8.43653 25.8921 8.15216 25.4774 8.02966C20.8521 6.65678 15.9626 6.65678 11.3383 8.02966C10.9226 8.15216 10.5744 8.43741 10.3836 8.80928C10.2077 9.15491 10.1789 9.53903 10.3014 9.88903L10.4475 10.3125C10.5971 10.7395 10.9314 11.0475 11.3339 11.1937V14.0435H1.97663C0.884625 14.0435 0 14.9282 0 16.0202V17.7474V21.6972V35.9325V36.8215V37.7105V38.4009C0 39.492 0.884625 40.3767 1.97663 40.3767H18.333H34.6903C35.7814 40.3767 36.6669 39.492 36.6669 38.4009V37.7105V36.8215V35.9325V21.6972V17.7474V16.0202C36.6669 14.9282 35.7814 14.0435 34.6903 14.0435Z" fill="#141414" fill-rule="evenodd"/>
</svg>