<svg xmlns:xlink="http://www.w3.org/1999/xlink" xmlns="http://www.w3.org/2000/svg" fill="none" height="48" viewBox="0 0 40 48" width="40">
<path clip-rule="evenodd" d="M12.6336 27.8241C12.6336 28.1178 12.3959 28.3554 12.1022 28.3554H3.0643C2.77059 28.3554 2.53295 28.1178 2.53295 27.8241C2.53295 27.5304 2.77059 27.2927 3.0643 27.2927H12.1022C12.3959 27.2927 12.6336 27.5304 12.6336 27.8241ZM35.0505 27.8241C35.0505 28.1178 34.812 28.3554 34.5183 28.3554H14.8158C14.5229 28.3554 14.2845 28.1178 14.2845 27.8241C14.2845 27.5304 14.5229 27.2927 14.8158 27.2927H34.5183C34.812 27.2927 35.0505 27.5304 35.0505 27.8241ZM2.53295 23.0453C2.53295 22.7516 2.77059 22.514 3.0643 22.514H23.3082C23.6019 22.514 23.8396 22.7516 23.8396 23.0453C23.8396 23.339 23.6019 23.5767 23.3082 23.5767H3.0643C2.77059 23.5767 2.53295 23.339 2.53295 23.0453ZM26.472 22.5123H33.9878V20.2438H26.472V22.5123ZM34.5183 19.1812H25.9397C25.6469 19.1812 25.4092 19.4205 25.4092 19.7142V23.0454C25.4092 23.3391 25.6469 23.5767 25.9397 23.5767H34.5183C34.812 23.5767 35.0505 23.3374 35.0505 23.0437V19.7125C35.0505 19.4196 34.812 19.1812 34.5183 19.1812ZM38.9373 34.0881H3.424V32.7978H37.1164C37.4101 32.7978 37.6478 32.5602 37.6478 32.2665V15.5236H38.9373V34.0881ZM1.06265 31.736H36.5759V16.0859H1.06265V31.736ZM1.06265 15.0232H36.5759V13.0627H1.06265V15.0232ZM39.4687 14.4609H37.6478V12.5313C37.6478 12.2376 37.4102 12 37.1165 12H0.531347C0.238479 12 0 12.2376 0 12.5313V32.2665C0 32.5602 0.238479 32.7979 0.531347 32.7979H2.36554V34.6195C2.36554 34.9132 2.60402 35.1508 2.89689 35.1508H39.4687C39.7624 35.1508 40 34.9132 40 34.6195V14.9923C40 14.6986 39.7624 14.4609 39.4687 14.4609Z" fill="black" fill-rule="evenodd"/>
</svg>