<svg width="40" height="65" version="1.1" xmlns="http://www.w3.org/2000/svg" xmlns:xlink="http://www.w3.org/1999/xlink"><g id="Page-1" stroke="none" stroke-width="1" fill="none" fill-rule="evenodd"><g id="Nav_CC-Copy" transform="translate(-843.000000, -24.000000)" fill="#011728"><path d="M852.779487,34.3969288 L856.464222,38.0617466 C856.583727,38.2285556 856.83643,38.2671457 857.041829,38.0617466 C857.221087,37.8824892 857.233535,37.6497036 857.041829,37.4841395 L853.377011,33.7994042 L852.779487,34.3969288 Z M843.836535,29.915494 C843.836535,32.7437773 846.132025,34.974536 848.915494,34.974536 C851.696473,34.974536 853.994453,32.746267 853.994453,29.915494 C853.994453,27.1145972 851.742532,24.8365345 848.915494,24.8365345 C846.123311,24.8365345 843.836535,27.0772519 843.836535,29.915494 L843.836535,29.915494 Z M843,29.915494 C843,26.6776573 845.611681,24 848.915494,24 C852.170758,24 854.830988,26.6303533 854.830988,29.915494 C854.830988,31.0844016 854.512308,32.1599459 853.874949,33.1421271 L857.639354,36.8866148 C858.099946,37.3484516 858.143515,38.1526202 857.629395,38.66923 C857.15013,39.1472497 856.389531,39.184595 855.866697,38.6592713 L852.101047,34.894866 C851.158701,35.5060839 850.098095,35.8110705 848.915494,35.8110705 C845.691351,35.8110705 843,33.2143279 843,29.915494 L843,29.915494 Z" id="Search-Copy"></path></g></g></svg>