<svg width="40" height="65" preserveAspectRatio="xMidYMid meet" version="1.1" xmlns="http://www.w3.org/2000/svg" xmlns:xlink="http://www.w3.org/1999/xlink"><g id="Page-1" stroke="none" stroke-width="1" fill="none" fill-rule="evenodd"><g id="Nav_CC-Copy" transform="translate(-934.000000, -24.000000)" fill="#011728"><path d="M940.587302,34.6291391 C940.587302,34.1610099 940.969246,33.8344371 941.380952,33.8344371 C941.833581,33.8344371 942.174603,34.1759106 942.174603,34.6291391 C942.174603,35.0451159 941.843502,35.4039735 941.380952,35.4039735 C940.918403,35.4039735 940.587302,35.0451159 940.587302,34.6291391 L940.587302,34.6291391 Z M940.964286,33.0596026 C940.964286,32.0451159 941.204861,31.3807947 941.916667,30.6953642 C942.407738,30.2384106 942.809524,29.8807947 942.809524,29.2450331 C942.809524,28.2466887 941.082093,27.5997517 939.416667,28.8675497 L939.416667,27.9735099 C940.970486,26.7988411 943.821429,27.1030629 943.821429,29.2251656 C943.821429,30.0471854 943.330357,30.5960265 942.690476,31.1324503 C942.050595,31.6949503 941.824901,32.1668046 941.797619,33.0596026 L940.964286,33.0596026 Z M934.873016,31.5099338 C934.873016,35.1109272 937.709077,38.1655629 941.5,38.1655629 C945.161954,38.1655629 948.126984,35.2413079 948.126984,31.5099338 C948.126984,27.7934603 945.170635,24.8344371 941.5,24.8344371 C937.870288,24.8344371 934.873016,27.7661424 934.873016,31.5099338 L934.873016,31.5099338 Z M934,31.5099338 C934,27.4147351 937.312252,24 941.5,24 C945.56622,24 949,27.2942881 949,31.5099338 C949,35.6411424 945.676587,39 941.5,39 C937.375496,39 934,35.6858444 934,31.5099338 L934,31.5099338 Z" id="Question"></path></g></g></svg>