<svg xmlns:xlink="http://www.w3.org/1999/xlink" xmlns="http://www.w3.org/2000/svg" fill="none" height="48" viewBox="0 0 40 48" width="40">
<path clip-rule="evenodd" d="M28.6193 13.7534C28.2518 13.2608 27.8493 12.797 27.4074 12.3717L28.4915 8.33012L29.9904 8.73175L28.6193 13.7534ZM29.7944 28.7045V38.9481C29.7944 39.7794 29.2957 40.482 28.7085 40.482H10.6573C10.0684 40.482 9.5714 39.7794 9.5714 38.9481V28.8611V28.8576L9.52065 20.4445C9.52065 14.869 14.0567 10.3339 19.6322 10.3339C25.2077 10.3339 29.7428 14.869 29.7428 20.448L29.7944 28.7045ZM9.2389 8.73175L10.7378 8.33012L11.828 12.3936C11.828 12.3945 11.8289 12.3954 11.8298 12.3962C11.3879 12.8241 10.9863 13.2922 10.6197 13.7866L9.2389 8.73175ZM19.6322 7.11037C21.2439 7.11037 22.5905 8.2295 22.9642 9.72663C21.9107 9.3985 20.7915 9.22263 19.6322 9.22263C18.4719 9.22263 17.3528 9.39937 16.2993 9.7275C16.6729 8.2295 18.0195 7.11037 19.6322 7.11037ZM31.155 8.06238C31.0815 7.93463 30.9608 7.841 30.8182 7.8025L28.2413 7.11213C27.9394 7.02988 27.6393 7.20925 27.5614 7.505L26.4729 11.5685C25.7598 11.0181 24.9828 10.5483 24.1498 10.1799C23.9547 7.84537 22.0148 6 19.6322 6C17.2487 6 15.3088 7.84537 15.1137 10.1799C14.2702 10.5535 13.4827 11.0304 12.7625 11.5904L11.6679 7.505C11.5883 7.20925 11.2829 7.03338 10.988 7.11213L8.41203 7.8025C8.26853 7.841 8.14778 7.93463 8.07428 8.06238C8.00078 8.191 7.98065 8.34238 8.01915 8.485L9.80503 15.0221C9.8059 15.0247 9.80765 15.0274 9.80853 15.0309C8.91953 16.6383 8.4094 18.4836 8.4094 20.448L8.46015 28.8629V38.9481C8.46015 40.4059 9.4454 41.5924 10.6573 41.5924H28.7085C29.9195 41.5924 30.9048 40.4059 30.9048 38.9481V28.701L30.854 20.4445C30.854 18.4661 30.3343 16.6085 29.4322 14.9924L31.2093 8.485C31.2487 8.34238 31.2294 8.191 31.155 8.06238ZM28.6315 20.4445C28.6315 20.7516 28.3822 21.0001 28.0759 21.0001C27.7697 21.0001 27.5203 20.7516 27.5203 20.4445C27.5203 16.0949 23.9809 12.5555 19.6322 12.5555C19.325 12.5555 19.0765 12.307 19.0765 11.9999C19.0765 11.6936 19.325 11.4443 19.6322 11.4443C24.5934 11.4443 28.6315 15.4824 28.6315 20.4445ZM19.6829 16.7083L22.6675 19.6938L19.6829 22.6793L16.6974 19.6938L19.6829 16.7083ZM19.29 23.8579C19.3942 23.962 19.535 24.0206 19.6829 24.0206C19.8299 24.0206 19.9708 23.962 20.0749 23.8579L23.847 20.0866C24.0632 19.8696 24.0632 19.5179 23.847 19.3009L20.0749 15.5296C19.8675 15.3231 19.4992 15.3214 19.29 15.5296L15.5188 19.3009C15.3018 19.5179 15.3018 19.8696 15.5188 20.0866L19.29 23.8579ZM13.5719 37.5674V33.524H23.455C23.3903 33.7891 23.3877 34.091 23.4393 34.2835C23.5417 34.6659 23.9345 34.8934 24.3178 34.791C24.7002 34.6886 24.9277 34.2949 24.8253 33.9116C24.7955 33.797 24.7255 33.6596 24.6363 33.524H25.7939V37.5674H13.5719ZM13.5719 32.4128H25.7939V30.6785H13.5719V32.4128ZM26.3495 29.5672H13.0163C12.7092 29.5672 12.4607 29.8166 12.4607 30.1229V38.123C12.4607 38.4292 12.7092 38.6786 13.0163 38.6786H26.3495C26.6558 38.6786 26.9052 38.4292 26.9052 38.123V30.1229C26.9052 29.8166 26.6558 29.5672 26.3495 29.5672Z" fill="black" fill-rule="evenodd"/>
</svg>