<svg xmlns:xlink="http://www.w3.org/1999/xlink" xmlns="http://www.w3.org/2000/svg" fill="none" height="48" viewBox="0 0 39 48" width="39">
<path clip-rule="evenodd" d="M29.5549 23.079C26.3489 24.3749 22.9565 25.0504 19.4635 25.074C15.9408 25.1072 12.5589 24.4685 9.33363 23.212L9.33275 16.576H29.5549V23.079ZM19.4644 28.8584C15.9364 28.903 12.5606 28.2599 9.3345 27.0042L9.33362 24.4003C12.5099 25.5798 15.8445 26.1861 19.2684 26.1861C19.3349 26.1861 19.4023 26.1852 19.4705 26.1852C22.9539 26.1607 26.341 25.5124 29.5549 24.2708V26.8704C26.3506 28.1654 22.9574 28.8339 19.4644 28.8584ZM19.4434 14.889C19.8231 14.889 20.1416 15.1305 20.2694 15.4656H18.6183C18.7451 15.1305 19.0645 14.889 19.4434 14.889ZM4.99975 28.7989H4.99888C4.57013 28.798 4.221 28.4497 4.221 28.0201C4.221 27.5922 4.57013 27.2431 4.99975 27.2431C5.42763 27.2431 5.77675 27.5922 5.77675 28.0201C5.77675 28.4497 5.4285 28.798 4.99975 28.7989ZM4.99975 33.3007C4.51325 32.9035 4.221 32.3015 4.221 31.6645C4.221 31.0257 4.51325 30.4255 5.00063 30.0274C5.48625 30.4255 5.77675 31.0257 5.77675 31.6645C5.77675 32.3024 5.48538 32.9035 4.99975 33.3007ZM38.3338 15.4656H21.1899C21.0411 14.6344 20.3166 14 19.4434 14C18.5701 14 17.8465 14.6344 17.6978 15.4656H0.555625C0.249375 15.4656 0 15.7141 0 16.0212C0 16.3275 0.249375 16.576 0.555625 16.576H4.44325V26.2255C3.67412 26.4635 3.11063 27.174 3.11063 28.0201C3.11063 28.6545 3.4265 29.2127 3.90688 29.5557C3.40463 30.1341 3.11063 30.8787 3.11063 31.6645C3.11063 32.8099 3.72662 33.8791 4.71975 34.4549C4.8055 34.5047 4.90175 34.5301 4.99887 34.5301C5.09425 34.5301 5.1905 34.5056 5.27625 34.4557C6.27113 33.8817 6.888 32.8116 6.888 31.6645C6.888 30.8787 6.59312 30.1341 6.09262 29.5557C6.57212 29.2127 6.888 28.6545 6.888 28.0201C6.888 27.174 6.3245 26.4635 5.5545 26.2255V16.576H8.2215L8.22237 23.604V23.6075L8.22325 27.7567L8.57063 27.8967C11.9735 29.2731 15.5715 29.9705 19.2692 29.9705C19.3357 29.9705 19.4049 29.9705 19.4714 29.9696C23.2356 29.9442 26.887 29.1979 30.3258 27.755L30.6661 27.6115V16.576H38.3338C38.64 16.576 38.8885 16.3275 38.8885 16.0212C38.8885 15.7141 38.64 15.4656 38.3338 15.4656Z" fill="#141414" fill-rule="evenodd"/>
</svg>