<svg xmlns:xlink="http://www.w3.org/1999/xlink" xmlns="http://www.w3.org/2000/svg" fill="none" height="48" viewBox="0 0 40 48" width="40">
<path clip-rule="evenodd" d="M29.4311 27.9014L33.0335 28.6303C33.7073 28.7694 34.402 28.6189 34.9909 28.1989C35.5929 27.7684 36.012 27.1139 36.1721 26.3544C36.3314 25.594 36.2106 24.8258 35.8318 24.1896C35.4625 23.5684 34.8894 23.1493 34.2183 23.0084L25.8401 21.527C27.0441 23.0136 28.732 25.4776 29.4311 27.9014ZM29.2658 32.9685C28.6463 34.7553 27.4493 36.1876 25.7894 37.1702L31.5408 41.7229C32.078 42.1569 32.7666 42.3371 33.4806 42.2277C34.2121 42.1184 34.8841 41.7246 35.3715 41.12C35.8571 40.5163 36.0986 39.7769 36.0496 39.0384C36.0033 38.3165 35.683 37.683 35.1493 37.2534L29.2658 32.9685ZM19.688 37.5596C25.2128 37.5596 28.6454 34.6537 28.6454 29.9778C28.6454 27.0903 25.939 23.2472 24.3981 21.5445C23.0463 22.381 21.4599 22.8727 19.7563 22.8727C18.0168 22.8727 16.3971 22.3609 15.0278 21.4911C13.4965 23.1641 10.7306 27.0588 10.7306 29.9778C10.7306 34.6537 14.1633 37.5596 19.688 37.5596ZM13.129 36.8876C11.5549 35.8201 10.4611 34.3064 9.95102 32.4523L3.99752 36.7879C3.48477 37.2026 3.16452 37.837 3.11727 38.558C3.06915 39.2965 3.30977 40.0368 3.79715 40.6396C4.28452 41.2451 4.95477 41.638 5.68715 41.7474C6.40115 41.8559 7.08977 41.6765 7.6244 41.246L13.129 36.8876ZM9.9589 27.8454C10.679 25.4015 12.3914 22.9279 13.5901 21.4614L5.22602 22.9401C3.8409 23.2315 2.96415 24.7321 3.28965 26.2826C3.4489 27.043 3.8689 27.6975 4.47177 28.128C5.05977 28.5471 5.75365 28.7002 6.42477 28.5602L9.9589 27.8454ZM19.7563 21.7615C24.028 21.7615 27.5026 18.2869 27.5026 14.0151C27.5026 9.74425 24.028 6.26962 19.7563 6.26962C15.4854 6.26962 12.0108 9.74425 12.0108 14.0151C12.0108 18.2869 15.4854 21.7615 19.7563 21.7615ZM11.7728 10.2054C12.5375 8.61025 13.7625 7.28025 15.2789 6.38688C14.2674 5.90475 13.0223 6.071 12.1866 6.9075C11.2924 7.80175 11.1611 9.16325 11.7728 10.2054ZM24.2564 6.4C25.7798 7.30387 27.0065 8.64787 27.766 10.2579C28.0294 9.83262 28.1764 9.34438 28.1764 8.83162C28.1764 8.1045 27.8938 7.42112 27.3793 6.9075C26.8665 6.39388 26.1831 6.11125 25.456 6.11125C25.0308 6.11125 24.6265 6.218 24.2564 6.4ZM32.8086 29.7179L29.684 29.0861C29.726 29.3862 29.7558 29.6855 29.7558 29.9777C29.7558 30.6217 29.6954 31.2377 29.5808 31.8231L35.8248 36.3714C36.6245 37.0154 37.0909 37.9297 37.16 38.9657C37.2265 39.9825 36.8984 40.9957 36.236 41.8174C35.5736 42.6399 34.6531 43.1754 33.6451 43.3267C33.4526 43.3556 33.2619 43.3696 33.0738 43.3696C32.2556 43.3696 31.4795 43.1019 30.8469 42.5917L24.7385 37.7556L24.791 37.69C23.3438 38.3252 21.6261 38.67 19.688 38.67C17.5565 38.67 15.6963 38.2474 14.1659 37.4844L8.3174 42.1149C7.6874 42.6215 6.91302 42.8901 6.0949 42.8901C5.9059 42.8901 5.71515 42.8752 5.52265 42.8464C4.51377 42.695 3.59415 42.1595 2.93177 41.337C2.2694 40.5162 1.94127 39.503 2.00865 38.4854C2.0769 37.4502 2.54327 36.535 3.32202 35.9067L9.7104 31.2535C9.65702 30.8396 9.6194 30.4179 9.6194 29.9777C9.6194 29.668 9.65265 29.3504 9.70077 29.031L6.64877 29.6479C6.4099 29.6977 6.17015 29.7231 5.9304 29.7231C5.1919 29.7231 4.46302 29.4869 3.82602 29.0319C2.99652 28.4395 2.41902 27.5444 2.20202 26.5119C1.7514 24.3611 3.01315 22.2699 5.01515 21.849L13.5656 20.3379C11.9233 18.7296 10.8995 16.4905 10.8995 14.0151C10.8995 13.1086 11.0378 12.2336 11.2924 11.4094C9.91952 9.90787 9.94752 7.57512 11.4009 6.12175C12.7746 4.748 14.9359 4.6535 16.4374 5.80937C17.4638 5.39287 18.5829 5.15837 19.7563 5.15837C20.9436 5.15837 22.075 5.39725 23.1101 5.8225C23.7804 5.29838 24.5906 5 25.456 5C26.4798 5 27.4423 5.39812 28.1659 6.12175C28.8886 6.84625 29.2876 7.80875 29.2876 8.83162C29.2876 9.81862 28.9096 10.7435 28.2333 11.4584C28.4791 12.2686 28.613 13.1261 28.613 14.0151C28.613 16.5264 27.5578 18.7917 25.8734 20.4052L34.4283 21.9181C35.4258 22.1264 36.257 22.7301 36.7873 23.6209C37.3088 24.4976 37.4768 25.5494 37.2589 26.5827C37.0428 27.6152 36.4661 28.5104 35.6358 29.1027C34.9988 29.5577 34.2708 29.794 33.5314 29.794C33.2908 29.794 33.0493 29.7686 32.8086 29.7179ZM17.9529 19.0114C18.0474 19.0114 18.1436 19.0079 18.2416 19.0009C18.8226 18.958 19.387 18.6771 19.7825 18.2912C20.1789 18.6771 20.7433 18.958 21.3234 19.0009C22.3226 19.07 23.1101 18.7673 23.6334 18.083C23.8198 17.8389 23.7743 17.4906 23.5301 17.3042C23.2878 17.1187 22.9395 17.1642 22.7514 17.4075C22.5536 17.6647 22.2194 17.9491 21.4056 17.8922C20.8413 17.8511 20.3985 17.3961 20.3548 17.1905L21.0635 16.4826C21.2219 16.3242 21.2691 16.0845 21.1834 15.8771C21.0976 15.6697 20.8946 15.5341 20.6698 15.5341H18.8961C18.6713 15.5341 18.4691 15.6697 18.3834 15.8771C18.2968 16.0845 18.3449 16.3242 18.5033 16.4826L19.2111 17.1905C19.1674 17.3961 18.7246 17.8511 18.1603 17.8931C17.3474 17.9535 17.0123 17.6656 16.8154 17.4084C16.629 17.1642 16.2808 17.1179 16.0366 17.3042C15.7934 17.4906 15.7461 17.8389 15.9325 18.0821C16.4041 18.6999 17.0831 19.0114 17.9529 19.0114ZM17.7499 35.3415C15.2806 35.1201 13.7214 33.9179 13.2428 31.8651C13.1728 31.5659 12.8753 31.3778 12.5751 31.4504C12.2768 31.5204 12.0913 31.8188 12.1604 32.1171C12.751 34.6459 14.7014 36.1833 17.6519 36.4475C17.6685 36.4493 17.6851 36.4501 17.7009 36.4501C17.9861 36.4501 18.2285 36.2323 18.2548 35.9435C18.2819 35.6381 18.0561 35.3678 17.7499 35.3415ZM22.4119 13.5846C22.6709 13.3309 22.6665 12.9012 22.4058 12.651C22.1433 12.3859 21.7215 12.3964 21.4625 12.6501L21.4564 12.658C21.1974 12.9284 21.2158 13.3414 21.4686 13.5995C21.7399 13.8567 22.1546 13.8541 22.4119 13.5846ZM17.0779 13.5995C16.8241 13.3414 16.8049 12.9284 17.0648 12.6589L17.0718 12.6501C17.3299 12.3964 17.7508 12.3859 18.0133 12.6519C18.2758 12.9013 18.2784 13.3309 18.0194 13.5846C17.7639 13.8541 17.3474 13.8568 17.0779 13.5995Z" fill="black" fill-rule="evenodd"/>
</svg>