<svg xmlns:xlink="http://www.w3.org/1999/xlink" xmlns="http://www.w3.org/2000/svg" fill="none" height="48" viewBox="0 0 40 48" width="40">
<path clip-rule="evenodd" d="M19.0636 25.1746C18.7198 25.466 18.34 25.6515 17.8789 25.7477V26.754C17.8789 27.0603 17.6295 27.3088 17.3232 27.3088C17.017 27.3088 16.7676 27.0603 16.7676 26.754V25.8134C16.2374 25.7679 15.6975 25.6095 15.2373 25.3575C14.9678 25.2096 14.8698 24.8719 15.0168 24.6032C15.1638 24.3355 15.5006 24.234 15.7701 24.3827C16.1858 24.6094 16.6871 24.7345 17.1553 24.7153C17.787 24.6943 18.0889 24.5446 18.3453 24.3267C18.6322 24.0835 18.6961 23.9444 18.683 23.5821C18.6742 23.2802 18.5938 23.0265 18.4669 22.9005C18.3164 22.75 17.9629 22.5269 17.4615 22.3912L16.7554 22.1672C16.2076 22.0194 15.8253 21.8645 15.435 21.4926C15.0465 21.1059 14.8706 20.7025 14.8531 20.1766C14.8321 19.5632 15.0063 19.089 15.4175 18.6401C15.7168 18.3444 16.1184 18.0267 16.7676 17.9252V16.9286C16.7676 16.6224 17.017 16.373 17.3232 16.373C17.6295 16.373 17.8789 16.6224 17.8789 16.9286V17.9637C18.3461 18.074 18.6804 18.3041 19.0829 18.5885L19.166 18.6462C19.4171 18.8221 19.4784 19.1695 19.3016 19.4197C19.124 19.6709 18.7784 19.733 18.5281 19.5562L18.4441 19.4967C17.8903 19.1065 17.7319 18.9927 17.1421 19.0041C16.7029 19.0181 16.4614 19.1695 16.2164 19.411C16.0212 19.6254 15.9521 19.8144 15.9644 20.1399C15.9722 20.3866 16.0291 20.517 16.2103 20.6972C16.4054 20.8827 16.5926 20.972 17.0704 21.1015L17.7747 21.3255C18.3558 21.4821 18.9184 21.7796 19.2526 22.1147C19.5834 22.4429 19.775 22.9512 19.7951 23.5454C19.817 24.2436 19.6053 24.7153 19.0636 25.1746ZM37.9671 32.977H27.3219L26.2211 31.8763H36.3186C36.6249 31.8763 36.8725 31.6278 36.8725 31.3206V19.565H37.9671V32.977ZM16.6154 32.9945L13.2554 29.6345H22.4061L25.7679 32.9945H16.6154ZM5.56325 31.8763H13.9256L15.0264 32.977H5.56325V31.8763ZM3.31712 29.6345H4.08712H11.683L12.8135 30.765H3.31712V29.6345ZM1.11037 26.2587C2.30125 26.4757 3.24187 27.3787 3.47637 28.5233H1.11037V26.2587ZM1.11037 15.1121H3.374C3.157 16.3012 2.25487 17.2436 1.11037 17.4772V15.1121ZM33.5143 15.1121V17.4772C32.3698 17.2436 31.4668 16.3012 31.2498 15.1121H33.5143ZM33.5142 26.2587V28.5233H31.1483C31.3819 27.3787 32.3234 26.4757 33.5142 26.2587ZM23.2409 15.1121H30.1254C30.3651 16.9173 31.7573 18.3514 33.5143 18.6043V25.1344C31.7074 25.375 30.2741 26.7671 30.0204 28.5233H23.2409V15.1121ZM4.60337 28.5233C4.3505 26.7671 2.91637 25.375 1.11037 25.1353V18.6043C2.86737 18.3514 4.2595 16.9173 4.49925 15.1121H11.4065V28.5233H4.60337ZM12.5186 28.5233H22.1296V15.1121H12.5186V28.5233ZM35.763 17.353V30.765C35.763 30.765 25.1221 30.7659 25.1108 30.7668L23.9785 29.6345H30.5357H34.069C34.3753 29.6345 34.6246 29.3851 34.6246 29.0789V25.6532V18.0889V17.353H35.763ZM38.5219 18.4537H36.8725V16.7974C36.8725 16.4902 36.6249 16.2417 36.3186 16.2417H34.6246V14.5556C34.6246 14.2494 34.3753 14 34.069 14H30.6434H3.98125H0.555625C0.2485 14 0 14.2494 0 14.5556V18.0889V25.6532V29.0789C0 29.3851 0.2485 29.6345 0.555625 29.6345H2.20587V31.3206C2.20587 31.6277 2.45613 31.8762 2.7615 31.8762H4.45288V33.5326C4.45288 33.8389 4.70225 34.0882 5.0085 34.0882H38.5219C38.829 34.0882 39.0775 33.8389 39.0775 33.5326V19.0094C39.0775 18.7022 38.829 18.4537 38.5219 18.4537ZM27.0541 22.7701C26.5291 22.7701 26.1021 22.3422 26.1021 21.8172C26.1021 21.2922 26.5291 20.8644 27.0541 20.8644C27.5791 20.8644 28.0079 21.2922 28.0079 21.8172C28.0079 22.3422 27.5791 22.7701 27.0541 22.7701ZM27.0541 19.754C25.9166 19.754 24.9909 20.6789 24.9909 21.8172C24.9909 22.9556 25.9166 23.8805 27.0541 23.8805C28.1925 23.8805 29.1183 22.9556 29.1183 21.8172C29.1183 20.6789 28.1925 19.754 27.0541 19.754ZM7.56962 22.7701C7.0455 22.7701 6.61675 22.3422 6.61675 21.8172C6.61675 21.2922 7.0455 20.8644 7.56962 20.8644C8.0955 20.8644 8.5225 21.2922 8.5225 21.8172C8.5225 22.3422 8.0955 22.7701 7.56962 22.7701ZM7.56962 19.754C6.43125 19.754 5.5055 20.6789 5.5055 21.8172C5.5055 22.9556 6.43125 23.8805 7.56962 23.8805C8.708 23.8805 9.63375 22.9556 9.63375 21.8172C9.63375 20.6789 8.708 19.754 7.56962 19.754Z" fill="#141414" fill-rule="evenodd"/>
</svg>