<svg width="75" height="65" version="1.1" xmlns="http://www.w3.org/2000/svg" xmlns:xlink="http://www.w3.org/1999/xlink"><g id="Page-1" stroke="none" stroke-width="1" fill="none" fill-rule="evenodd"><g id="Nav_CC-Copy" transform="translate(-1135.000000, -25.000000)" fill="#011728"><path d="M1138.62969,29.0899554 C1138.62969,30.8811959 1140.0118,32.3000262 1141.7978,32.3000262 C1143.57986,32.3000262 1144.96591,30.8838185 1144.96591,29.0899554 C1144.96591,27.2908471 1143.5733,25.8811959 1141.7978,25.8811959 C1140.02229,25.8811959 1138.62969,27.2908471 1138.62969,29.0899554 L1138.62969,29.0899554 Z M1137.70653,29.0899554 C1137.70653,26.858117 1139.50826,25 1141.7978,25 C1144.04406,25 1145.88906,26.8135327 1145.88906,29.0899554 C1145.88906,31.3388408 1144.06897,33.1812221 1141.7978,33.1812221 C1139.54498,33.1812221 1137.70653,31.3571991 1137.70653,29.0899554 L1137.70653,29.0899554 Z M1141.7978,35.1324416 C1138.82245,35.1324416 1136.37687,36.1985313 1136.091,39.1188041 L1147.50459,39.1188041 C1147.22004,36.19722 1144.77052,35.1324416 1141.7978,35.1324416 L1141.7978,35.1324416 Z M1135,40 L1135.06294,39.3299239 C1135.40126,35.6989247 1138.13402,34.252557 1141.7978,34.252557 C1145.4524,34.252557 1148.19302,35.6910569 1148.53265,39.3299239 L1148.59559,40 L1135,40 Z" id="User"></path></g></g></svg>