<svg xmlns:xlink="http://www.w3.org/1999/xlink" id="Layer_1" data-name="Layer 1" xmlns="http://www.w3.org/2000/svg" width="22"  height="17" ><title>Youtube_footer_logo</title><path d="M21.54,2.5a2.79,2.79,0,0,0-1.94-2C17.88,0,11,0,11,0S4.12,0,2.4.48a2.79,2.79,0,0,0-1.94,2A30.83,30.83,0,0,0,0,8a30.83,30.83,0,0,0,.46,5.5,2.81,2.81,0,0,0,1.94,2C4.12,16,11,16,11,16s6.88,0,8.6-.48a2.81,2.81,0,0,0,1.94-2A30.83,30.83,0,0,0,22,8,30.83,30.83,0,0,0,21.54,2.5ZM8.75,11.38V4.62L14.5,8Z" style="fill:#ffffff"/></svg>